<?xml version="1.0" encoding="UTF-8"?><svg id="Crop_Marks" xmlns="http://www.w3.org/2000/svg" viewBox="0 0 235 44.15"><defs><style>.cls-1{fill:#fff;}</style></defs><g><path class="cls-1" d="M71.4,14.89c1.24,1.06,1.86,2.68,1.86,4.87s-.64,3.79-1.91,4.81c-1.28,1.01-3.23,1.52-5.85,1.52h-2.36v4.95h-3.96V13.31h6.26c2.72,0,4.7,.53,5.95,1.59Zm-2.9,6.97c.47-.53,.71-1.31,.71-2.33s-.31-1.75-.93-2.18c-.62-.43-1.58-.65-2.88-.65h-2.26v5.96h2.66c1.32,0,2.21-.27,2.69-.8Z"/><path class="cls-1" d="M84.5,27.54c1.94,0,3.53-.77,4.77-2.31l2.54,2.61c-2.01,2.27-4.38,3.4-7.11,3.4s-4.98-.86-6.75-2.59c-1.77-1.72-2.65-3.9-2.65-6.53s.9-4.82,2.7-6.58c1.8-1.76,4-2.64,6.61-2.64,2.91,0,5.34,1.11,7.3,3.32l-2.46,2.79c-1.25-1.56-2.81-2.33-4.67-2.33-1.49,0-2.76,.49-3.82,1.46-1.06,.97-1.59,2.28-1.59,3.93s.5,2.97,1.5,3.97c1,1,2.21,1.5,3.63,1.5Z"/><path class="cls-1" d="M100.58,15.19c-2.28,0-3.78,.91-3.78,2.43,0,4.62,9.99,2.21,9.97,8.65,0,2.94-2.61,4.84-6.42,4.84-2.59,0-5.12-1.12-6.8-2.71l.91-1.75c1.65,1.57,3.91,2.49,5.91,2.49,2.56,0,4.16-1.04,4.16-2.76,.03-4.74-9.97-2.23-9.97-8.6,0-2.79,2.46-4.57,6.14-4.57,2.05,0,4.16,.66,5.63,1.65l-.86,1.8c-1.6-1.04-3.47-1.47-4.89-1.47Z"/><path class="cls-1" d="M124.52,19.24c0,3.91-2.54,6.16-6.92,6.16h-4.64v5.63h-2.03V13.28h6.67c4.39,0,6.92,2.18,6.92,5.96Zm-1.95,.05c0-2.71-1.85-4.13-5.05-4.13h-4.57v8.37h4.57c3.2,0,5.05-1.45,5.05-4.24Z"/><path class="cls-1" d="M139.94,13.28v1.88h-10.02v5.96h8.95v1.85h-8.95v6.19h10.35v1.88h-12.38V13.28h12.05Z"/><path class="cls-1" d="M152.01,15.09c-4.01,0-7.23,3.12-7.23,7.05s3.22,7.08,7.23,7.08c1.95,0,3.86-.81,5.25-2.13l1.24,1.34c-1.75,1.65-4.13,2.69-6.59,2.69-5.12,0-9.18-3.96-9.18-8.98s4.11-8.9,9.26-8.9c2.43,0,4.79,.99,6.49,2.59l-1.22,1.47c-1.37-1.37-3.3-2.21-5.25-2.21Z"/><path class="cls-1" d="M164.19,13.28V31.04h-2.03V13.28h2.03Z"/><path class="cls-1" d="M180.77,26.5h-9.66l-1.98,4.54h-2.16l7.96-17.75h2.11l7.94,17.75h-2.21l-2-4.54Zm-.81-1.88l-4.03-9.13-3.98,9.13h8.01Z"/><path class="cls-1" d="M189.8,13.28v15.88h7.79v1.88h-9.82V13.28h2.03Z"/><path class="cls-1" d="M202.92,13.28V31.04h-2.03V13.28h2.03Z"/><path class="cls-1" d="M213.44,15.19c-2.28,0-3.78,.91-3.78,2.43,0,4.62,9.99,2.21,9.97,8.65,0,2.94-2.61,4.84-6.42,4.84-2.59,0-5.12-1.12-6.8-2.71l.91-1.75c1.65,1.57,3.91,2.49,5.91,2.49,2.56,0,4.16-1.04,4.16-2.76,.03-4.74-9.97-2.23-9.97-8.6,0-2.79,2.46-4.57,6.14-4.57,2.05,0,4.16,.66,5.63,1.65l-.86,1.8c-1.6-1.04-3.47-1.47-4.9-1.47Z"/><path class="cls-1" d="M235,13.28v1.88h-5.81v15.88h-2.03V15.16h-5.78v-1.88h13.62Z"/></g><g><path class="cls-1" d="M45.58,30.85c-3.4,7.82-11.2,13.3-20.25,13.3s-16.85-5.48-20.25-13.3c-.4-.91-.73-1.85-1-2.82-.35-1.25-.6-2.57-.72-3.9H20.07v-4.12H3.26l-3.26-3.9H23.97v11.92H8.16c.34,.98,.76,1.92,1.26,2.82,3.1,5.6,9.07,9.4,15.91,9.4s12.81-3.8,15.91-9.4h4.34Z"/><path class="cls-1" d="M50.65,28.03H26.66v-11.92h15.83c-.34-.98-.76-1.92-1.26-2.82-3.1-5.6-9.07-9.39-15.91-9.39s-12.81,3.8-15.91,9.39H5.08C8.49,5.47,16.28,0,25.33,0s16.85,5.48,20.25,13.3c.4,.91,.73,1.85,1,2.82,.35,1.24,.59,2.52,.72,3.84v.06H30.56v4.12h16.83l3.26,3.9Z"/></g></svg>
